<?xml version="1.0" encoding="UTF-8" standalone="no"?>
<svg
   xmlns:dc="http://purl.org/dc/elements/1.1/"
   xmlns:cc="http://creativecommons.org/ns#"
   xmlns:rdf="http://www.w3.org/1999/02/22-rdf-syntax-ns#"
   xmlns:svg="http://www.w3.org/2000/svg"
   xmlns="http://www.w3.org/2000/svg"
   xmlns:sodipodi="http://sodipodi.sourceforge.net/DTD/sodipodi-0.dtd"
   xmlns:inkscape="http://www.inkscape.org/namespaces/inkscape"
   version="1.1"
   id="svg901"
   width="1066.6667"
   height="1066.6667"
   viewBox="0 0 1066.6667 1066.6667"
   sodipodi:docname="bestlogo.svg"
   inkscape:version="1.0.2 (1.0.2+r75+1)"
   inkscape:export-filename="/home/j/kilterproj/download.png"
   inkscape:export-xdpi="96"
   inkscape:export-ydpi="96">
  <metadata
     id="metadata907">
    <rdf:RDF>
      <cc:Work
         rdf:about="">
        <dc:format>image/svg+xml</dc:format>
        <dc:type
           rdf:resource="http://purl.org/dc/dcmitype/StillImage" />
        <dc:title></dc:title>
      </cc:Work>
    </rdf:RDF>
  </metadata>
  <defs
     id="defs905" />
  <sodipodi:namedview
     pagecolor="#ffffff"
     bordercolor="#666666"
     borderopacity="1"
     objecttolerance="10"
     gridtolerance="10"
     guidetolerance="10"
     inkscape:pageopacity="0"
     inkscape:pageshadow="2"
     inkscape:window-width="1853"
     inkscape:window-height="1025"
     id="namedview903"
     showgrid="false"
     inkscape:zoom="0.70710678"
     inkscape:cx="475.89809"
     inkscape:cy="434.18722"
     inkscape:window-x="67"
     inkscape:window-y="27"
     inkscape:window-maximized="1"
     inkscape:current-layer="g1071"
     inkscape:document-rotation="0" />
  <g
     inkscape:groupmode="layer"
     id="g1071"
     inkscape:label="Image 1 copy copy"
     style="display:inline">
    <path
       style="fill:none;stroke:#000000;stroke-width:9;stroke-linecap:butt;stroke-linejoin:round;stroke-miterlimit:4;stroke-dasharray:none;stroke-opacity:1"
       d="M 727.54159,429.5448 C 736.59251,367.51704 716.33026,315.73999 656.19391,284.50137 599.37563,261.866 521.90271,233.07685 429.28103,302.43364 l -17.37793,1.37333 c -16.72319,4.7096 -30.23086,12.13642 -42.94307,20.23543 l -0.0447,13.87141 -18.47622,0.29172 -29.27274,0.56263 c -3.02951,1.1195 -5.42123,2.20617 -5.10531,5.54982 l -0.25543,41.1201 c 1.24817,4.64788 3.62166,3.85154 5.6043,4.94612 l 47.56061,0.64136 -0.035,13.08436 c 12.51786,8.8942 27.8798,19.75001 50.05922,23.2122 l 74.97358,-0.38808 0.50564,30.83601 c 22.4098,35.17772 -15.91802,48.92564 6.7746,57.86825 l 44.55195,-0.20399 0.46867,18.10296 c -0.5433,29.48343 8.74979,50.1399 17.36049,71.07366 4.2754,10.69133 -0.30953,20.90514 -16.78788,27.13304 l -31.0706,0.63472 c -6.53842,2.58151 -12.79506,4.78497 -18.06382,9.61554 l -31.98925,32.41309 c -5.04718,4.51269 -6.01305,11.72911 -6.92183,17.90206 l -0.32623,69.66759 c 4.11829,10.15992 10.57935,17.30601 21.14764,19.16844 l 153.14143,-0.11459 c 10.45922,-0.57927 15.5202,-10.33959 19.80543,-17.98267 l -0.19614,-105.09342 c -2.16289,-12.83294 -8.25853,-21.98143 -16.38524,-29.22706 l -1.52108,-76.79985 c -0.45696,-14.19924 4.64027,-27.41497 9.28121,-40.70467 23.5334,-13.48812 51.83205,-20.59886 64.0345,-48.35855 l 17.63432,-26.65853 z"
       id="path1053"
       sodipodi:nodetypes="cccccccccccccccccccccccccccccccccccc" />
    <path
       style="fill:none;stroke:#000000;stroke-width:9;stroke-linecap:butt;stroke-linejoin:round;stroke-miterlimit:4;stroke-dasharray:none;stroke-opacity:1"
       d="m 394.61241,419.59916 c -24.45092,-30.14627 -6.76863,-85.5023 34.66862,-117.16552"
       id="path1055"
       sodipodi:nodetypes="cc" />
    <path
       style="fill:none;stroke:#000000;stroke-width:9;stroke-linecap:butt;stroke-linejoin:round;stroke-miterlimit:4;stroke-dasharray:none;stroke-opacity:1"
       d="m 413.44564,403.07893 c -15.17982,-18.60891 -16.19838,-38.7692 8.21272,-51.2637 3.71628,-18.7516 9.77051,-36.05502 37.46844,-39.95192 16.20915,-23.23507 38.45008,-31.09746 67.76865,-21.33154 12.1105,-6.12036 24.95119,-11.06442 41.20529,-10.50965 7.48595,3.95006 7.94603,9.12702 0.12163,15.75069 -32.00114,0.29814 -39.38806,13.60306 -38.13791,32.86825 -13.11813,8.72826 -23.05274,18.99121 -10.36643,40.15909 4.30142,7.76065 -1.66032,10.83174 -12.9781,11.45549 -7.26473,-5.18736 -8.51069,-13.22989 -10.91052,-20.72506 -18.38237,3.81767 -21.72971,11.59335 -25.04131,19.37844 l -0.96209,19.10208 c -6.32248,9.71782 -12.09021,5.05959 -18.56871,0.26096 -1.33973,-6.16666 -1.46842,-12.82722 -0.56576,-19.90839 7.65239,-18.98139 23.88827,-29.81629 44.86192,-36.15464 2.92948,-7.73317 8.34344,-13.74023 14.84925,-18.98872 -0.49586,-9.2347 0.80014,-16.25507 4.86925,-19.84851 -18.33753,-11.92688 -45.24039,13.53161 -44.87827,21.86944 -29.9547,3.90627 -31.3757,14.08425 -30.66859,32.7416 -21.30609,8.5337 -19.64527,22.28332 -13.46236,37.05993 0.94913,7.35411 -3.29733,10.05602 -12.8171,8.03616 z"
       id="path1057"
       sodipodi:nodetypes="ccccccccccccccccccccc" />
    <path
       style="fill:none;stroke:#000000;stroke-width:9;stroke-linecap:butt;stroke-linejoin:round;stroke-miterlimit:4;stroke-dasharray:none;stroke-opacity:1"
       d="m 546.52791,352.30118 c 5.54299,6.7221 11.57264,6.76311 17.89853,0.0854 -0.11516,-15.66554 -3.6164,-32.9248 32.81619,-31.38844 20.2041,-8.47414 38.45155,-10.03299 48.20568,18.42584 16.36936,6.22406 37.81608,13.74888 29.06671,40.04747 15.81223,16.06964 11.6577,27.15853 10.32651,44.0475 6.38927,8.02652 12.65192,4.93656 17.61691,-1.55037 1.22441,1.09857 2.51408,-23.79187 1.52245,-26.72123 -0.97474,-2.87947 -11.09161,-19.60313 -11.6859,-21.54207 -0.88473,-2.88651 3.92093,-34.43733 -30.09955,-43.12925 -15.08306,-29.71783 -39.04316,-34.86454 -68.06977,-25.98742 -52.51535,4.75495 -49.01944,26.54927 -47.59776,47.71259 z"
       id="path1059"
       sodipodi:nodetypes="cccccccsscccc" />
    <path
       style="fill:none;stroke:#020000;stroke-width:9;stroke-linecap:butt;stroke-linejoin:round;stroke-miterlimit:4;stroke-dasharray:none;stroke-opacity:1"
       d="m 485.11412,425.9654 c 1.21142,-1.59197 12.07629,-14.62041 17.86115,-19.32242 1.42842,-1.16104 24.91991,-13.26291 25.59758,-12.53509 0,0 46.76055,-14.28873 47.58307,-14.89506 0.82251,-0.60634 17.84248,-8.48398 17.84248,-8.48398 0.5719,-0.99403 10.56251,-15.57723 10.87054,-16.6354 5.39852,-18.54513 22.00365,-9.97942 18.41211,1.95553 l -11.95632,19.76132 c -10.35393,9.14818 -23.65418,14.319 -36.19797,19.94336 l -53.63624,16.98111 c -6.15596,2.97643 -9.09396,6.40674 -12.41504,9.77506 l -15.00617,23.02618"
       id="path1061"
       sodipodi:nodetypes="cscscscccccc" />
    <path
       style="fill:none;stroke:#000000;stroke-width:8;stroke-linecap:butt;stroke-linejoin:round;stroke-miterlimit:4;stroke-dasharray:none;stroke-opacity:1"
       d="m 493.70514,448.84961 c 12.5625,10.92762 23.54702,24.25094 42.06644,26.13467 10.44372,1.18498 21.81027,2.56098 31.50399,-1.70847 l 74.50474,-22.32108 c 24.52609,-0.22854 69.80352,1.88904 76.76841,-4.96902"
       id="path1063"
       sodipodi:nodetypes="ccccc" />
    <path
       style="fill:none;stroke:#000000;stroke-width:9;stroke-linecap:butt;stroke-linejoin:round;stroke-miterlimit:4;stroke-dasharray:none;stroke-opacity:1"
       d="m 540.70041,451.17436 c -6.69506,-3.85592 -15.8083,-7.76266 -3.74184,-15.22735 36.21864,-2.71415 47.85071,-15.61438 67.04513,-25.81075 4.99552,-2.31659 10.32862,-4.08249 17.26156,-3.23847 11.85369,-8.47087 16.88553,-16.11397 21.36466,-23.69001 11.77652,-4.68405 14.6194,0.49524 13.15652,10.42838 -3.96838,7.1655 -8.65416,12.38717 -13.69861,16.63703 6.78473,1.49792 14.79611,2.59383 17.04352,5.57883 6.73294,9.49711 -0.39835,11.54665 -11.51733,11.44547 -6.83532,-3.85917 -16.13254,-5.64926 -29.65394,-3.88921 -20.68697,6.89906 -25.8235,16.73362 -59.78598,26.74713 z"
       id="path1065"
       sodipodi:nodetypes="cccccccccccc" />
    <path
       style="fill:none;stroke:#000000;stroke-width:9;stroke-linecap:butt;stroke-linejoin:round;stroke-miterlimit:4;stroke-dasharray:none;stroke-opacity:1"
       d="m 635.86825,547.59097 c -8.56002,-0.0127 -17.20397,-0.0733 -22.97178,1.5085 -3.67795,-15.75984 -6.70632,-31.48874 -9.8115,-47.22131 11.39366,8.45748 24.55417,11.17287 38.30875,11.95759"
       id="path1067"
       sodipodi:nodetypes="cccc" />
    <path
       style="fill:none;stroke:#000000;stroke-width:9;stroke-linecap:butt;stroke-linejoin:round;stroke-miterlimit:4;stroke-dasharray:none;stroke-opacity:1"
       d="m 663.47551,501.55667 c -17.51671,-0.59896 -42.8204,1.03236 -60.56027,-20.89323 15.76329,-5.56789 30.62344,-11.76933 48.40448,-16.05616 18.42652,-1.21318 37.48195,-1.41414 56.45811,-1.74268"
       id="path1069"
       sodipodi:nodetypes="cccc" />
    <path
       style="fill:#000000;fill-opacity:1;stroke:#000000;stroke-width:9;stroke-linejoin:round"
       d="m 475.02026,774.57577 c -3.57453,-1.97213 -7.63993,-6.25167 -9.64766,-10.15583 -1.86532,-3.62724 -1.94904,-5.67177 -1.65842,-40.5 0.2968,-35.56777 0.37347,-36.81663 2.52871,-41.18909 1.43415,-2.90954 8.53375,-10.78506 20.01298,-22.20021 22.99603,-22.86763 23.1467,-22.94441 46.26439,-23.57521 14.88256,-0.40609 16.96201,-0.6836 21.21309,-2.83095 10.70157,-5.4057 16.13464,-12.98824 16.03898,-22.38445 -0.0437,-4.29255 -1.30164,-8.57351 -5.72998,-19.5 -9.2206,-22.75091 -11.48988,-33.15866 -12.63425,-57.94524 -0.55797,-12.0853 -1.42507,-21.49717 -2.04987,-22.25 -0.83355,-1.00436 -6.42112,-1.30476 -24.26928,-1.30476 -17.54563,0 -23.62258,-0.31893 -24.97925,-1.31094 -1.69443,-1.239 -1.58993,-1.80109 1.90431,-10.24226 5.22851,-12.63074 5.81764,-23.64658 1.82197,-34.06805 -0.47579,-1.24095 0.79114,-0.58358 3.73198,1.93641 5.86778,5.02809 16.98276,10.41487 24.4523,11.85061 3.3,0.63431 11.175,1.16919 17.5,1.18863 l 11.5,0.0353 40.23398,-12.19487 40.23399,-12.19487 23.76601,-0.0871 c 13.07131,-0.0479 27.81602,-0.4171 32.76602,-0.82047 4.95,-0.40336 9.10785,-0.66882 9.23967,-0.58992 0.13181,0.0789 -0.31819,0.87911 -1,1.77824 -1.0601,1.39797 -5.22309,1.77828 -28.73967,2.62551 -30.63822,1.1038 -31.41106,1.24644 -57.5,10.61249 -7.15,2.56689 -14.51144,5.16577 -16.35875,5.7753 -1.84731,0.60953 -4.03657,2.14271 -4.86501,3.40708 -1.33058,2.03071 -1.33404,2.56127 -0.0297,4.54884 6.08174,9.2674 21.25472,18.41905 35.22448,21.2458 4.38407,0.88711 8.09589,1.73778 8.24849,1.89039 0.15261,0.1526 -0.7815,0.84421 -2.0758,1.53689 -3.97973,2.12989 -17.37061,-0.94645 -28.26095,-6.4925 -7.74143,-3.94242 -9.43906,-4.47082 -11.25,-3.50164 -2.9426,1.57483 -2.79342,3.6616 1.91131,26.73645 4.87671,23.91839 5.82275,27.6162 7.30941,28.57076 0.63058,0.40489 5.30901,0.45097 10.39651,0.10241 l 9.25,-0.63376 0.11502,9.3976 c 0.0633,5.16868 0.40075,22.70741 0.75,38.97495 l 0.63498,29.57734 4.90262,5.42266 c 2.69644,2.98246 6.29644,8.34765 8,11.92265 l 3.09738,6.5 0.28333,53.86051 0.28333,53.86052 -3.14483,4.90078 c -6.24343,9.72955 2.18987,8.88238 -88.0762,8.84778 -55.9277,-0.0214 -79.93589,-0.35607 -81.34562,-1.13385 z"
       id="path1077" />
    <path
       style="fill:#000000;fill-opacity:1;stroke:#000000;stroke-width:9;stroke-linejoin:round"
       d="m 377.27027,403.98457 c -3.71962,-2.49476 -3.75,-2.57027 -3.75,-9.32082 0,-4.34641 -0.4517,-7.09803 -1.25,-7.6147 -0.6875,-0.44496 -12.5,-1.03402 -26.25,-1.30902 l -25,-0.5 v -20.5 -20.5 l 25,-1 c 13.75,-0.55 25.5625,-1.36406 26.25,-1.80902 0.79971,-0.51758 1.25,-3.27785 1.25,-7.66248 v -6.85346 l 7.75,-4.45512 c 9.87206,-5.67501 28.55835,-13.71992 31.86788,-13.71992 0.30139,0 -1.09749,1.9125 -3.10863,4.25 -24.41306,28.37478 -35.57885,60.13103 -30.1267,85.68243 0.87226,4.08783 1.48052,7.52126 1.35168,7.62983 -0.12883,0.10857 -1.92173,-0.9344 -3.98423,-2.31772 z"
       id="path1079" />
    <path
       style="fill:#000000;fill-opacity:1;stroke:#000000;stroke-width:2.25;stroke-linejoin:round"
       d="m 539.52613,445.16533 c -2.40687,-1.4476 -3.57381,-2.28238 -3.57381,-2.55657 0,-0.10845 0.55499,-0.63587 1.23331,-1.17205 1.1163,-0.88238 1.41873,-0.99155 3.1875,-1.15055 8.96231,-0.80567 18.79773,-2.78516 26.32919,-5.29904 8.68959,-2.90045 15.10096,-6.1074 27.75,-13.8805 10.00838,-6.15036 13.10397,-7.75916 17.25422,-8.96711 1.49639,-0.43553 2.82278,-0.57652 6.62771,-0.70452 l 4.75693,-0.16003 1.36807,-0.98956 c 7.97285,-5.76695 15.11235,-13.31206 19.83398,-20.96081 1.45993,-2.365 1.47173,-2.37632 2.8914,-2.77466 0.78402,-0.21998 1.95527,-0.39997 2.60278,-0.39997 1.03371,0 1.20702,0.0782 1.4211,0.64127 0.1341,0.3527 0.24381,1.68051 0.24381,2.95068 v 2.3094 l -1.70629,2.61183 c -2.77344,4.24529 -5.51966,7.42333 -9.96578,11.53279 -1.39968,1.2937 -1.86099,1.89839 -2.08614,2.73451 -0.54369,2.01912 0.23268,4.19943 1.85162,5.2 0.45912,0.28375 2.45595,0.84347 4.5499,1.27536 9.03768,1.86408 10.91841,2.55027 12.09276,4.41202 0.41879,0.66393 0.73374,1.36857 0.69989,1.56588 -0.0888,0.51749 -2.15317,0.98048 -5.2277,1.17242 l -2.66673,0.16649 -2.33327,-1.02121 c -2.87432,-1.25801 -5.94399,-2.1619 -9.70826,-2.85869 -2.43094,-0.44998 -3.85965,-0.53459 -9.25,-0.5478 -7.78977,-0.0191 -10.0438,0.25976 -14,1.73202 -5.97591,2.22387 -10.50227,4.45884 -20,9.87538 -10.27491,5.85976 -16.96078,9.01033 -26.17672,12.33519 -8.72233,3.14679 -9.5372,3.32683 -17.07328,3.7724 -9.25119,0.54698 -8.51831,0.60363 -10.92619,-0.84457 z"
       id="path1081" />
    <path
       style="fill:#000000;fill-opacity:1;stroke:#000000;stroke-width:2.25;stroke-linejoin:round"
       d="m 498.63866,427.67881 c -0.0989,-1.44303 -0.29927,-2.2867 -0.72145,-3.03788 -0.62222,-1.10709 -2.2414,-2.24097 -3.2001,-2.24097 -0.4944,0 -0.36468,-0.23007 1.02196,-1.8125 0.87354,-0.99688 3.42482,-3.68661 5.66951,-5.97719 3.94811,-4.02883 4.18056,-4.21888 7.125,-5.82552 4.15658,-2.26804 15.8142,-8.07806 18.41874,-9.17968 1.16875,-0.49434 6.11875,-2.1055 11,-3.58035 9.91087,-2.99453 35.87045,-11.08041 38,-11.83621 0.75625,-0.26841 2.725,-1.13181 4.375,-1.91867 1.65,-0.78687 5.97384,-2.82454 9.60852,-4.52817 3.63469,-1.70363 6.83014,-3.29308 7.101,-3.53211 0.67658,-0.59707 10.80152,-15.84507 11.65654,-17.55457 0.37962,-0.75902 0.83355,-1.83003 1.00872,-2.38003 1.29832,-4.07656 3.85434,-6.69252 6.12328,-6.26686 1.9485,0.36554 3.64926,3.11692 3.29108,5.32409 -0.0836,0.51494 -1.03472,2.3867 -2.12768,4.18701 -1.08712,1.79067 -3.62976,5.98439 -5.65033,9.31938 -3.65381,6.03069 -3.68486,6.07222 -5.71744,7.64702 -6.04676,4.68488 -12.64854,8.30134 -25.83182,14.15067 -6.2143,2.75724 -6.60321,2.88975 -33.125,11.28613 -18.29244,5.7911 -27.41713,8.79541 -28.65938,9.43613 -2.8458,1.46778 -6.05263,3.86104 -9.22989,6.88828 -2.66145,2.53579 -3.20867,3.22525 -6.2727,7.90315 -1.84628,2.81875 -3.44007,5.21539 -3.54175,5.32586 -0.10168,0.11047 -0.24649,-0.69818 -0.32181,-1.79701 z"
       id="path1083" />
    <path
       style="fill:#000000;fill-opacity:1;stroke:#000000;stroke-width:2.25;stroke-linejoin:round"
       d="m 690.87627,422.90546 c -1.40007,-0.88789 -1.3593,-0.433 -0.62607,-6.98485 0.71521,-6.39093 0.76911,-14.0539 0.12323,-17.52065 -1.19101,-6.39276 -4.22377,-12.55089 -8.94957,-18.17241 l -1.72118,-2.04741 0.4926,-2.06246 c 0.79964,-3.34797 1.13149,-7.7471 0.80166,-10.62724 -1.39498,-12.18129 -8.93413,-20.15357 -25.66962,-27.14438 -1.7875,-0.74668 -3.92712,-1.6065 -4.75471,-1.91072 -1.48106,-0.54443 -1.51407,-0.57754 -2.09985,-2.10675 -0.96793,-2.52687 -3.35879,-7.13886 -4.95258,-9.55363 -4.00788,-6.07236 -9.1381,-10.23316 -15.1303,-12.27124 -5.76211,-1.95982 -12.90802,-1.95077 -20.70717,0.0262 -2.53785,0.64331 -9.37645,2.93163 -10.53047,3.52369 -0.50071,0.25688 -1.82492,0.34634 -5.12654,0.34634 -16.60649,0 -26.54982,4.78039 -30.34527,14.58889 -1.45811,3.76816 -1.75864,5.835 -1.90729,13.11714 l -0.13434,6.58104 -1.35449,0.89933 c -1.85079,1.22885 -3.59695,1.39635 -5.13372,0.49245 -2.17814,-1.28113 -2.133,-1.14953 -2.47154,-7.20684 -0.68593,-12.27318 1.01672,-18.5572 6.43214,-23.73916 2.22145,-2.12569 4.24062,-3.47368 7.6812,-5.12795 6.33722,-3.04701 15.27905,-5.2306 26.53493,-6.47981 2.38158,-0.26432 4.84739,-0.72421 6.75727,-1.26028 3.99503,-1.12133 9.83244,-2.27687 13.31688,-2.63611 4.21006,-0.43407 12.25724,-0.16608 15.42585,0.5137 7.71783,1.65574 13.95077,4.94022 19.46586,10.2576 4.23554,4.08371 7.39093,8.28057 10.63379,14.14359 0.84223,1.52272 1.85479,3.07849 2.25015,3.45726 0.49549,0.47471 1.50219,0.91739 3.24023,1.42483 14.06625,4.10677 22.1675,12.97576 24.41093,26.72432 0.21315,1.30625 0.48609,4.65643 0.60653,7.44484 0.26307,6.09078 -0.18329,4.93484 6.39271,16.55516 2.45108,4.33125 4.7932,8.59303 5.20471,9.47061 l 0.74821,1.59562 -0.16208,6.65438 c -0.14794,6.07397 -0.38468,10.1207 -0.82806,14.15439 -0.15808,1.43825 -0.23276,1.56741 -1.81393,3.13752 -2.64818,2.62967 -4.06403,3.03422 -6.1001,1.74298 z"
       id="path1085" />
    <path
       style="fill:#000000;fill-opacity:1;stroke:#000000;stroke-width:2.25;stroke-linejoin:round"
       d="m 416.45939,398.89611 c -0.67295,-0.19245 -3.02943,-3.40905 -4.80507,-6.55892 -3.4421,-6.10605 -4.99867,-12.45549 -4.25337,-17.35004 1.06944,-7.02328 5.52073,-12.71034 13.72451,-17.53472 3.19022,-1.87607 4.22012,-2.69227 4.67461,-3.70465 0.18871,-0.42034 0.74862,-2.6205 1.24426,-4.88925 2.382,-10.9035 5.77026,-17.95875 11.07449,-23.05999 4.70063,-4.52075 10.61693,-7.30768 18.69941,-8.80854 4.11943,-0.76495 5.2453,-1.26835 6.34895,-2.83877 5.46603,-7.77772 12.45742,-14.23808 19.48569,-18.00565 4.42494,-2.37203 10.51473,-4.23303 15.69688,-4.79687 3.84307,-0.41814 10.77911,-0.18528 14.80312,0.49699 3.23139,0.54787 9.07809,1.97258 11.46459,2.79366 2.33214,0.80237 2.95798,0.67744 7.52746,-1.50266 10.07489,-4.80675 18.03209,-7.23858 26.69287,-8.15773 1.89204,-0.20079 4.46382,-0.36629 5.71507,-0.36776 2.12775,-0.003 2.3413,0.0454 3.2995,0.73948 0.56349,0.40818 1.13485,0.94831 1.26971,1.20029 0.33173,0.61986 -0.36219,2.11727 -1.62183,3.49975 l -0.97237,1.06719 -3.75,0.24985 c -13.89718,0.92594 -22.97784,4.16619 -29.24829,10.43663 -5.13408,5.13409 -7.70311,11.71167 -8.04827,20.60635 l -0.1524,3.92722 -1.51975,1.06604 c -2.22433,1.56028 -6.09155,4.95314 -7.55125,6.62499 -4.89677,5.60849 -6.93781,10.72057 -6.91895,17.32953 0.0157,5.49847 1.21722,9.73308 4.74427,16.72032 1.2758,2.52742 2.31964,4.79169 2.31964,5.03171 0,0.80886 -2.87875,1.72952 -7.30727,2.33696 -0.8774,0.12035 -1.00621,0.0449 -2.18861,-1.2817 -2.20906,-2.47852 -3.38093,-5.18185 -6.12096,-14.12018 -1.03376,-3.37223 -1.7965,-4.38788 -3.69433,-4.91923 -1.30016,-0.36403 -2.3664,-0.20323 -6.81383,1.02758 -6.73961,1.86516 -11.76036,4.46854 -15.59601,8.08689 -3.07092,2.89695 -5.20796,6.11033 -7.31063,10.99265 l -1.18433,2.75 -0.43467,9.25 -0.43466,9.25 -1.15331,1.16918 c -1.42375,1.44333 -2.16117,1.6575 -3.69287,1.07254 -1.96608,-0.75085 -4.87843,-2.88286 -5.10737,-3.73887 -0.50031,-1.87073 -0.75265,-8.05269 -0.47995,-11.75811 l 0.27559,-3.74474 1.34791,-2.75 c 2.37106,-4.83743 4.88053,-8.359 8.87855,-12.45936 7.05377,-7.23431 15.96803,-12.45566 28.31829,-16.58689 4.95468,-1.65736 5.42865,-1.99967 6.52764,-4.71432 2.01951,-4.98843 5.81636,-9.87 11.58926,-14.90021 1.75852,-1.53228 2.62042,-2.46666 2.79288,-3.02772 0.13719,-0.44632 0.30755,-3.00525 0.37858,-5.6865 0.18005,-6.79629 0.95005,-9.87812 3.05225,-12.21627 1.82347,-2.02814 2.24922,-3.6131 1.47092,-5.47584 -0.53279,-1.27514 -1.22889,-1.95625 -3.02971,-2.96447 -3.33942,-1.86964 -8.04644,-3.09014 -11.92628,-3.09241 -9.53466,-0.006 -21.34705,5.67091 -30.16016,14.4936 -3.30267,3.30626 -6.37782,7.49608 -7.47048,10.17837 -0.22109,0.54273 -0.5372,0.83846 -0.98826,0.92455 -7.97128,1.52143 -11.38824,2.44462 -15.31633,4.13811 -8.8725,3.82514 -13.62191,9.78633 -15.06676,18.91096 -0.21584,1.36312 -0.46808,4.3407 -0.56052,6.61684 l -0.16808,4.13844 -1.6376,0.86156 c -5.45215,2.86846 -10.37606,7.25707 -12.60716,11.23656 -3.76565,6.71661 -3.93474,14.53396 -0.52616,24.32597 1.68585,4.84306 1.91148,6.80664 0.84443,7.34899 -0.64576,0.32822 -3.44181,0.39909 -4.44348,0.11262 z"
       id="path1087" />
  </g>
</svg>
